<?xml version="1.0" encoding="utf-8"?>
<!-- Generator: Adobe Illustrator 17.0.0, SVG Export Plug-In . SVG Version: 6.00 Build 0)  -->
<!DOCTYPE svg PUBLIC "-//W3C//DTD SVG 1.1//EN" "http://www.w3.org/Graphics/SVG/1.1/DTD/svg11.dtd">
<svg version="1.1" id="Layer_1" xmlns="http://www.w3.org/2000/svg" xmlns:xlink="http://www.w3.org/1999/xlink" x="0px" y="0px"
	 width="360px" height="360px" viewBox="540 224.5 360 360" enable-background="new 540 224.5 360 360" xml:space="preserve">
<g>
	
		<linearGradient id="SVGID_1_" gradientUnits="userSpaceOnUse" x1="1008.7271" y1="-21.0594" x2="1040.8611" y2="237.5686" gradientTransform="matrix(1 0 0 -1 -381 514)">
		<stop  offset="0" style="stop-color:#FFFFFF;stop-opacity:0"/>
		<stop  offset="0.7599" style="stop-color:#F26223"/>
		<stop  offset="1" style="stop-color:#08006A;stop-opacity:0.8229"/>
	</linearGradient>
	<path fill="url(#SVGID_1_)" d="M570.925,318.384c-47.4,82.1-19.139,187.158,63.122,234.652
		c27.136,15.666,56.756,23.107,85.972,23.105l-0.042-48.727c-20.928,0.001-42.145-5.327-61.584-16.55
		c-58.926-34.021-79.17-109.276-45.216-168.085c6.724-11.647,2.714-26.547-8.953-33.283c-11.668-6.737-26.578-2.757-33.301,8.887
		L570.925,318.384z"/>
	
		<linearGradient id="SVGID_2_" gradientUnits="userSpaceOnUse" x1="1255.3594" y1="84.5237" x2="1023.9163" y2="23.5138" gradientTransform="matrix(1 0 0 -1 -381 514)">
		<stop  offset="0" style="stop-color:#FFFFFF;stop-opacity:0"/>
		<stop  offset="0.7599" style="stop-color:#F26223"/>
		<stop  offset="1" style="stop-color:#08006A;stop-opacity:0.8229"/>
	</linearGradient>
	<path fill="url(#SVGID_2_)" d="M720.028,576.948c94.692-0.319,171.711-77.638,172.032-172.697
		c0.105-31.357-8.153-60.724-22.661-85.994l-42.21,24.559c10.391,18.102,16.308,39.138,16.233,61.599
		c-0.229,68.093-55.4,123.477-123.23,123.706c-13.431,0.046-24.356,11.012-24.401,24.496
		C695.747,566.1,706.597,576.994,720.028,576.948z"/>
	
		<linearGradient id="SVGID_3_" gradientUnits="userSpaceOnUse" x1="955.9081" y1="187.1255" x2="1298.7841" y2="243.8285" gradientTransform="matrix(1 0 0 -1 -381 514)">
		<stop  offset="0" style="stop-color:#FFFFFF;stop-opacity:0"/>
		<stop  offset="0.7599" style="stop-color:#F26223"/>
		<stop  offset="1" style="stop-color:#08006A;stop-opacity:0.8229"/>
	</linearGradient>
	<path fill="url(#SVGID_3_)" d="M868.83,318.008c-47.44-82.226-152.555-110.371-234.781-62.867
		c-27.123,15.671-48.362,37.617-62.952,62.942l42.226,24.379c10.45-18.141,25.666-33.861,45.094-45.086
		c58.899-34.029,134.195-13.866,168.178,45.033c6.729,11.663,21.639,15.654,33.302,8.917
		C871.56,344.588,875.559,329.671,868.83,318.008z"/>
	<path fill="#F2F2F2" d="M719.553,513.082c60.475,0,109.5-48.8,109.5-109c0-60.199-49.025-109-109.5-109s-109.5,48.801-109.5,109
		C610.053,464.282,659.078,513.082,719.553,513.082z"/>
	
		<linearGradient id="SVGID_4_" gradientUnits="userSpaceOnUse" x1="1206.1392" y1="138.0743" x2="994.601" y2="81.3925" gradientTransform="matrix(1 0 0 -1 -381 514)">
		<stop  offset="0" style="stop-color:#000000"/>
		<stop  offset="0.17" style="stop-color:#010207"/>
		<stop  offset="0.43" style="stop-color:#070A1D"/>
		<stop  offset="0.75" style="stop-color:#0F173F"/>
		<stop  offset="1" style="stop-color:#182360"/>
	</linearGradient>
	<path fill="url(#SVGID_4_)" d="M624.54,349.517c-30.238,52.372-12.294,119.34,40.081,149.579
		c52.375,30.238,119.341,12.293,149.578-40.079c30.238-52.373,12.295-119.343-40.078-149.581
		C721.748,279.199,654.778,297.142,624.54,349.517z M813.041,458.348c-29.82,51.651-96.102,69.409-147.753,39.589
		c-51.651-29.821-69.41-96.103-39.59-147.752c29.819-51.649,96.102-69.409,147.751-39.59
		C825.098,340.415,842.861,406.699,813.041,458.348z"/>
	<path fill="#FFFFFF" d="M594.722,326.539c-2.115-1.722-5.226-1.402-6.95,0.716c-1.723,2.118-1.406,5.231,0.708,6.953
		c2.115,1.722,5.227,1.402,6.95-0.716C597.153,331.374,596.836,328.261,594.722,326.539z"/>
	<path fill="#FFFFFF" d="M722.763,548.215c-1.928-1.929-5.056-1.927-6.986,0.004c-1.93,1.931-1.931,5.061-0.003,6.99
		c1.928,1.929,5.055,1.928,6.985-0.004C724.689,553.274,724.691,550.145,722.763,548.215z"/>
	<path fill="#FFFFFF" d="M852.065,330.275c0.04-2.73-2.138-4.973-4.866-5.01c-2.728-0.038-4.972,2.144-5.012,4.874
		c-0.041,2.729,2.138,4.972,4.866,5.01C849.78,335.186,852.024,333.004,852.065,330.275z"/>
</g>
</svg>
