<svg width="459" height="455" viewBox="0 0 459 455" fill="none" xmlns="http://www.w3.org/2000/svg">
<path d="M234.5 344.812C294.975 344.812 344 296.012 344 235.812C344 175.613 294.975 126.812 234.5 126.812C174.025 126.812 125 175.613 125 235.812C125 296.012 174.025 344.812 234.5 344.812Z" fill="#F2F2F2"/>
<path d="M85.872 150.114C38.4717 232.214 66.7328 337.272 148.994 384.766C176.13 400.432 205.751 407.873 234.966 407.871L234.924 359.144C213.996 359.145 192.779 353.817 173.34 342.594C114.414 308.573 94.1704 233.318 128.124 174.509C134.848 162.862 130.838 147.962 119.171 141.226C107.503 134.49 92.5929 138.469 85.8701 150.113L85.872 150.114Z" fill="url(#paint0_linear_1905_7719)" style="mix-blend-mode:screen"/>
<path d="M234.975 408.678C329.667 408.359 406.686 331.04 407.007 235.981C407.112 204.624 398.854 175.257 384.346 149.987L342.136 174.546C352.527 192.648 358.444 213.684 358.369 236.145C358.14 304.238 302.969 359.622 235.139 359.851C221.708 359.897 210.783 370.863 210.738 384.347C210.694 397.83 221.544 408.724 234.975 408.678Z" fill="url(#paint1_linear_1905_7719)" style="mix-blend-mode:screen"/>
<path d="M383.777 149.738C336.337 67.5124 231.222 39.3672 148.996 86.8712C121.873 102.542 100.634 124.488 86.0435 149.813L128.27 174.192C138.72 156.051 153.936 140.331 173.364 129.106C232.263 95.0771 307.559 115.24 341.542 174.139C348.271 185.802 363.181 189.793 374.844 183.056C386.507 176.318 390.506 161.401 383.777 149.738Z" fill="url(#paint2_linear_1905_7719)" style="mix-blend-mode:screen"/>
<path d="M109.669 158.269C107.554 156.547 104.443 156.867 102.719 158.985C100.996 161.103 101.313 164.216 103.427 165.938C105.542 167.66 108.654 167.34 110.377 165.222C112.1 163.104 111.783 159.991 109.669 158.269Z" fill="white"/>
<path d="M237.71 379.945C235.782 378.016 232.654 378.018 230.724 379.949C228.794 381.88 228.793 385.01 230.721 386.939C232.649 388.868 235.776 388.867 237.706 386.935C239.636 385.004 239.638 381.875 237.71 379.945Z" fill="white"/>
<path d="M367.012 162.005C367.052 159.275 364.874 157.032 362.146 156.995C359.418 156.957 357.174 159.139 357.134 161.869C357.093 164.598 359.272 166.841 362 166.879C364.727 166.916 366.971 164.734 367.012 162.005Z" fill="white"/>
<defs>
<linearGradient id="paint0_linear_1905_7719" x1="249" y1="380" x2="281.134" y2="121.372" gradientUnits="userSpaceOnUse">
<stop stop-color="white" stop-opacity="0"/>
<stop offset="0.759917" stop-color="#F26223"/>
<stop offset="1" stop-color="#08006A" stop-opacity="0.822917"/>
</linearGradient>
<linearGradient id="paint1_linear_1905_7719" x1="365" y1="169" x2="133.557" y2="230.01" gradientUnits="userSpaceOnUse">
<stop stop-color="white" stop-opacity="0"/>
<stop offset="0.759917" stop-color="#F26223"/>
<stop offset="1" stop-color="#08006A" stop-opacity="0.822917"/>
</linearGradient>
<linearGradient id="paint2_linear_1905_7719" x1="87.8085" y1="146.233" x2="430.685" y2="89.5301" gradientUnits="userSpaceOnUse">
<stop stop-color="white" stop-opacity="0"/>
<stop offset="0.759917" stop-color="#F26223"/>
<stop offset="1" stop-color="#08006A" stop-opacity="0.822917"/>
</linearGradient>
</defs>
</svg>
