<?xml version="1.0" encoding="utf-8"?>
<!-- Generator: Adobe Illustrator 17.0.0, SVG Export Plug-In . SVG Version: 6.00 Build 0)  -->
<!DOCTYPE svg PUBLIC "-//W3C//DTD SVG 1.1//EN" "http://www.w3.org/Graphics/SVG/1.1/DTD/svg11.dtd">
<svg version="1.1" id="Layer_1" xmlns:serif="http://www.serif.com/"
	 xmlns="http://www.w3.org/2000/svg" xmlns:xlink="http://www.w3.org/1999/xlink" x="0px" y="0px" width="24px" height="24px"
	 viewBox="3 -2 24 24" enable-background="new 3 -2 24 24" xml:space="preserve">
<path fill="#7B7B7B" d="M15-2c6.623,0,12,5.377,12,12s-5.377,12-12,12S3,16.623,3,10S8.377-2,15-2z M15,2.5
	c-2.037,0-2.292,0.009-3.092,0.045c-0.798,0.036-1.343,0.163-1.821,0.349C9.594,3.085,9.176,3.342,8.759,3.759
	S8.085,4.594,7.894,5.087C7.708,5.564,7.582,6.109,7.545,6.908C7.509,7.708,7.5,7.963,7.5,10s0.009,2.292,0.045,3.092
	c0.036,0.798,0.163,1.343,0.349,1.821c0.192,0.493,0.448,0.911,0.865,1.328c0.417,0.417,0.835,0.673,1.328,0.865
	c0.477,0.185,1.022,0.312,1.821,0.349c0.8,0.037,1.055,0.045,3.092,0.045s2.292-0.009,3.092-0.045
	c0.798-0.036,1.343-0.163,1.821-0.349c0.493-0.192,0.911-0.448,1.328-0.865c0.417-0.417,0.673-0.835,0.865-1.328
	c0.185-0.477,0.312-1.022,0.349-1.821c0.037-0.8,0.045-1.055,0.045-3.092s-0.009-2.292-0.045-3.092
	c-0.036-0.798-0.163-1.343-0.349-1.821c-0.192-0.493-0.448-0.911-0.865-1.328c-0.417-0.417-0.835-0.673-1.328-0.865
	c-0.477-0.185-1.022-0.312-1.821-0.349C17.292,2.509,17.037,2.5,15,2.5z M15,3.851c2.003,0,2.24,0.008,3.031,0.044
	c0.731,0.033,1.128,0.156,1.393,0.258c0.35,0.136,0.6,0.299,0.862,0.561c0.263,0.262,0.425,0.512,0.561,0.862
	c0.103,0.264,0.225,0.661,0.258,1.393C21.141,7.76,21.149,7.997,21.149,10s-0.008,2.24-0.044,3.031
	c-0.033,0.731-0.156,1.128-0.258,1.393c-0.136,0.35-0.299,0.6-0.561,0.862c-0.262,0.263-0.512,0.425-0.862,0.561
	c-0.264,0.103-0.661,0.225-1.393,0.258c-0.791,0.036-1.028,0.044-3.031,0.044s-2.24-0.008-3.031-0.044
	c-0.731-0.033-1.128-0.156-1.393-0.258c-0.35-0.136-0.6-0.299-0.862-0.561c-0.262-0.262-0.425-0.512-0.561-0.862
	c-0.103-0.264-0.225-0.661-0.258-1.393C8.859,12.24,8.851,12.003,8.851,10s0.008-2.24,0.044-3.031
	c0.033-0.731,0.156-1.128,0.258-1.393c0.136-0.35,0.299-0.6,0.561-0.862c0.262-0.262,0.512-0.425,0.862-0.561
	c0.264-0.103,0.661-0.225,1.393-0.258C12.76,3.859,12.997,3.851,15,3.851z M15,6.149c-2.127,0-3.851,1.724-3.851,3.851
	s1.724,3.851,3.851,3.851s3.851-1.724,3.851-3.851S17.127,6.149,15,6.149z M15,12.5c-1.381,0-2.5-1.119-2.5-2.5s1.119-2.5,2.5-2.5
	s2.5,1.119,2.5,2.5S16.381,12.5,15,12.5z M19.904,5.997c0,0.497-0.403,0.9-0.9,0.9c-0.497,0-0.9-0.403-0.9-0.9s0.403-0.9,0.9-0.9
	C19.501,5.097,19.904,5.499,19.904,5.997z"/>
</svg>
