<?xml version="1.0" encoding="utf-8"?>
<!-- Generator: Adobe Illustrator 17.0.0, SVG Export Plug-In . SVG Version: 6.00 Build 0)  -->
<!DOCTYPE svg PUBLIC "-//W3C//DTD SVG 1.1//EN" "http://www.w3.org/Graphics/SVG/1.1/DTD/svg11.dtd">
<svg version="1.1" id="Layer_1" xmlns="http://www.w3.org/2000/svg" xmlns:xlink="http://www.w3.org/1999/xlink" x="0px" y="0px"
	 width="24px" height="24px" viewBox="0 0 24 24" enable-background="new 0 0 24 24" xml:space="preserve">
<path fill="#7B7B7B" d="M12,0C5.383,0,0,5.383,0,12s5.383,12,12,12s12-5.383,12-12S18.617,0,12,0z M8.348,17.217H6.261V9.391h2.087
	V17.217z M7.304,7.826c-0.577,0-1.043-0.467-1.043-1.043s0.467-1.043,1.043-1.043s1.043,0.467,1.043,1.043S7.881,7.826,7.304,7.826z
	 M18.261,17.217h-2.087v-2.609v-1.304c0-1.004-0.822-1.826-1.826-1.826s-1.826,0.822-1.826,1.826v3.913h-2.087V9.391h2.087v0.947
	c0.609-0.585,1.436-0.947,2.348-0.947c1.873,0,3.391,1.518,3.391,3.391V17.217z"/>
</svg>
