<?xml version="1.0" encoding="utf-8"?>
<!-- Generator: Adobe Illustrator 17.0.0, SVG Export Plug-In . SVG Version: 6.00 Build 0)  -->
<!DOCTYPE svg PUBLIC "-//W3C//DTD SVG 1.1//EN" "http://www.w3.org/Graphics/SVG/1.1/DTD/svg11.dtd">
<svg version="1.1" id="Layer_1" xmlns:serif="http://www.serif.com/"
	 xmlns="http://www.w3.org/2000/svg" xmlns:xlink="http://www.w3.org/1999/xlink" x="0px" y="0px" width="24px" height="24px"
	 viewBox="3 -2 24 24" enable-background="new 3 -2 24 24" xml:space="preserve">
<path fill="#7B7B7B" d="M15-2c6.623,0,12,5.377,12,12s-5.377,12-12,12S3,16.623,3,10S8.377-2,15-2z M12.886,16.382
	c5.31,0,8.214-4.4,8.214-8.214c0-0.126,0-0.251-0.006-0.371c0.563-0.407,1.054-0.916,1.443-1.497
	c-0.515,0.227-1.072,0.383-1.658,0.455c0.599-0.359,1.054-0.922,1.269-1.598c-0.557,0.329-1.173,0.569-1.832,0.7
	c-0.527-0.563-1.275-0.91-2.107-0.91c-1.592,0-2.886,1.293-2.886,2.886c0,0.227,0.024,0.449,0.078,0.658
	C13,8.372,10.875,7.223,9.45,5.475C9.205,5.9,9.061,6.397,9.061,6.924c0,1,0.509,1.886,1.287,2.401
	C9.875,9.312,9.432,9.181,9.043,8.965v0.036c0,1.401,0.994,2.562,2.317,2.832c-0.239,0.066-0.497,0.102-0.76,0.102
	c-0.186,0-0.365-0.018-0.545-0.054c0.365,1.149,1.431,1.982,2.694,2.005c-0.988,0.772-2.233,1.233-3.586,1.233
	c-0.233,0-0.461-0.012-0.688-0.042C9.737,15.903,11.258,16.382,12.886,16.382z"/>
</svg>
