<?xml version="1.0" encoding="utf-8"?>
<!-- Generator: Adobe Illustrator 17.0.0, SVG Export Plug-In . SVG Version: 6.00 Build 0)  -->
<!DOCTYPE svg PUBLIC "-//W3C//DTD SVG 1.1//EN" "http://www.w3.org/Graphics/SVG/1.1/DTD/svg11.dtd">
<svg version="1.1" id="Layer_1" xmlns:serif="http://www.serif.com/"
	 xmlns="http://www.w3.org/2000/svg" xmlns:xlink="http://www.w3.org/1999/xlink" x="0px" y="0px" width="24px" height="24px"
	 viewBox="3 -2 24 24" enable-background="new 3 -2 24 24" xml:space="preserve">
<path fill="#7B7B7B" d="M15-2c6.623,0,12,5.377,12,12s-5.377,12-12,12S3,16.623,3,10S8.377-2,15-2z M22.187,6.39
	c-0.173-0.645-0.681-1.154-1.326-1.326C19.691,4.75,15,4.75,15,4.75s-4.691,0-5.861,0.314C8.494,5.236,7.986,5.744,7.813,6.39
	C7.5,7.559,7.5,10,7.5,10s0,2.441,0.313,3.61c0.173,0.645,0.681,1.154,1.326,1.326C10.309,15.25,15,15.25,15,15.25
	s4.691,0,5.861-0.313c0.645-0.172,1.154-0.681,1.326-1.326C22.5,12.441,22.5,10,22.5,10S22.5,7.559,22.187,6.39z M13.5,12.25v-4.5
	L17.397,10C17.397,10,13.5,12.25,13.5,12.25z"/>
</svg>
