<?xml version="1.0" encoding="utf-8"?>
<!-- Generator: Adobe Illustrator 17.0.0, SVG Export Plug-In . SVG Version: 6.00 Build 0)  -->
<!DOCTYPE svg PUBLIC "-//W3C//DTD SVG 1.1//EN" "http://www.w3.org/Graphics/SVG/1.1/DTD/svg11.dtd">
<svg version="1.1" id="Layer_1" xmlns="http://www.w3.org/2000/svg" xmlns:xlink="http://www.w3.org/1999/xlink" x="0px" y="0px"
	 width="24px" height="24px" viewBox="0 0 24 24" enable-background="new 0 0 24 24" xml:space="preserve">
<path fill="#7B7B7B" d="M12,0.061c-6.627,0-12,5.373-12,12c0,6.016,4.432,10.984,10.207,11.852v-8.671H7.238v-3.154h2.969V9.989
	c0-3.475,1.693-5.001,4.581-5.001c1.383,0,2.115,0.103,2.461,0.149v2.753h-1.97c-1.226,0-1.654,1.162-1.654,2.473v1.724h3.593
	l-0.488,3.154h-3.106v8.697C19.481,23.144,24,18.136,24,12.061C24,5.434,18.627,0.061,12,0.061z"/>
</svg>
