<svg width="141" height="32" viewBox="0 0 141 32" fill="none" xmlns="http://www.w3.org/2000/svg">
<g clip-path="url(#clip0_1817_7394)">
<path d="M140.999 14.543V12.0226H137.92V8.10435L137.816 8.13679L134.924 9.03626L134.867 9.05386V12.0227H130.302V10.3688C130.302 9.5987 130.471 9.00936 130.805 8.61633C131.137 8.22801 131.611 8.03059 132.216 8.03059C132.651 8.03059 133.101 8.13471 133.554 8.34003L133.668 8.3916V5.73729L133.614 5.71732C133.191 5.56288 132.617 5.48511 131.904 5.48511C131.006 5.48511 130.19 5.68377 129.478 6.0775C128.766 6.47178 128.206 7.03464 127.813 7.75027C127.422 8.46508 127.224 9.29065 127.224 10.2043V12.0226H125.079V14.543H127.224V25.1609H130.302V14.543H134.867V21.2905C134.867 24.0695 136.156 25.4777 138.7 25.4777C139.118 25.4777 139.558 25.428 140.007 25.3305C140.464 25.2304 140.775 25.1304 140.959 25.0237L140.999 24.9993V22.4556L140.874 22.5398C140.707 22.6529 140.499 22.7454 140.255 22.8141C140.01 22.8841 139.805 22.9192 139.647 22.9192C139.051 22.9192 138.61 22.756 138.337 22.434C138.06 22.109 137.92 21.5408 137.92 20.7458V14.543H140.999ZM118.206 22.9196C117.088 22.9196 116.208 22.5431 115.587 21.8014C114.962 21.056 114.646 19.9932 114.646 18.6429C114.646 17.2497 114.962 16.1593 115.587 15.4007C116.208 14.6471 117.081 14.2646 118.181 14.2646C119.248 14.2646 120.097 14.6299 120.706 15.351C121.318 16.0757 121.628 17.1574 121.628 18.5668C121.628 19.9934 121.336 21.0894 120.761 21.8225C120.189 22.55 119.329 22.9196 118.206 22.9196ZM118.342 11.7061C116.211 11.7061 114.518 12.3409 113.311 13.5929C112.105 14.8451 111.493 16.5779 111.493 18.7436C111.493 20.8007 112.09 22.4553 113.268 23.6608C114.445 24.8666 116.048 25.4775 118.031 25.4775C120.097 25.4775 121.756 24.8338 122.963 23.5644C124.169 22.2965 124.78 20.58 124.78 18.4649C124.78 16.3756 124.207 14.7087 123.075 13.5113C121.943 12.3133 120.35 11.7061 118.342 11.7061ZM106.53 11.7061C105.08 11.7061 103.881 12.083 102.965 12.8263C102.043 13.5739 101.575 14.5545 101.575 15.7411C101.575 16.3579 101.676 16.9058 101.875 17.3705C102.075 17.8367 102.384 18.2472 102.795 18.5917C103.202 18.9334 103.832 19.2914 104.666 19.6556C105.367 19.9488 105.89 20.1968 106.222 20.3923C106.546 20.5839 106.777 20.7765 106.907 20.964C107.033 21.1476 107.097 21.3988 107.097 21.7088C107.097 22.5915 106.447 23.021 105.109 23.021C104.613 23.021 104.046 22.9156 103.426 22.7079C102.81 22.5034 102.229 22.2039 101.703 21.8198L101.575 21.7267V24.7388L101.622 24.761C102.058 24.9653 102.607 25.1377 103.254 25.2732C103.9 25.409 104.487 25.478 104.997 25.478C106.57 25.478 107.837 25.0993 108.761 24.3516C109.692 23.5988 110.163 22.5951 110.163 21.3675C110.163 20.4819 109.91 19.7224 109.409 19.1099C108.912 18.5024 108.05 17.9447 106.847 17.4517C105.889 17.0608 105.275 16.7362 105.021 16.4871C104.777 16.2464 104.653 15.9061 104.653 15.475C104.653 15.093 104.806 14.7869 105.12 14.539C105.437 14.2898 105.878 14.1631 106.43 14.1631C106.943 14.1631 107.468 14.2455 107.99 14.4069C108.511 14.5682 108.969 14.7844 109.352 15.0487L109.477 15.1361V12.2788L109.429 12.2577C109.076 12.104 108.611 11.9724 108.046 11.8657C107.484 11.7596 106.974 11.7061 106.53 11.7061ZM93.551 22.9196C92.4341 22.9196 91.5529 22.5431 90.9323 21.8014C90.3076 21.056 89.9917 19.9934 89.9917 18.6429C89.9917 17.2497 90.308 16.1593 90.933 15.4007C91.5536 14.6471 92.4259 14.2646 93.5263 14.2646C94.5932 14.2646 95.4428 14.6299 96.0516 15.351C96.6633 16.0757 96.9736 17.1574 96.9736 18.5668C96.9736 19.9934 96.6816 21.0894 96.106 21.8225C95.5344 22.55 94.6752 22.9196 93.551 22.9196ZM93.6882 11.7061C91.5562 11.7061 89.8631 12.3409 88.6567 13.5929C87.4504 14.8451 86.8384 16.5779 86.8384 18.7436C86.8384 20.8016 87.4358 22.4553 88.6134 23.6608C89.7911 24.8666 91.3936 25.4775 93.3764 25.4775C95.4423 25.4775 97.102 24.8338 98.3085 23.5644C99.5147 22.2965 100.126 20.58 100.126 18.4649C100.126 16.3756 99.5525 14.7087 98.4205 13.5113C97.288 12.3133 95.6957 11.7061 93.6882 11.7061ZM82.1659 14.2979V12.0226H79.1254V25.1607H82.1659V18.44C82.1659 17.2973 82.4209 16.3584 82.9239 15.6493C83.4205 14.9486 84.0823 14.5936 84.8903 14.5936C85.1642 14.5936 85.4717 14.6395 85.8046 14.7303C86.1341 14.8205 86.3728 14.9186 86.5136 15.0217L86.6414 15.1158V12.0001L86.5922 11.9787C86.309 11.8564 85.9084 11.7947 85.4016 11.7947C84.6375 11.7947 83.9537 12.0442 83.368 12.5356C82.8539 12.9674 82.4824 13.5595 82.1983 14.2979H82.1659ZM73.6803 11.7061C72.2853 11.7061 71.0411 12.0101 69.9828 12.6094C68.9223 13.2102 68.1022 14.0678 67.5442 15.1583C66.9886 16.2461 66.7066 17.5169 66.7066 18.934C66.7066 20.1753 66.98 21.3145 67.5206 22.3185C68.0614 23.3242 68.8268 24.1109 69.7958 24.6566C70.7634 25.2016 71.8817 25.4779 73.1199 25.4779C74.5649 25.4779 75.7986 25.1842 76.7878 24.6052L76.8278 24.5819V21.7505L76.7 21.8453C76.2519 22.1771 75.7512 22.4419 75.2124 22.6327C74.675 22.8233 74.1851 22.9196 73.7554 22.9196C72.5624 22.9196 71.6046 22.5402 70.9094 21.7921C70.2126 21.0431 69.8594 19.9912 69.8594 18.6677C69.8594 17.3358 70.2278 16.2569 70.9538 15.4609C71.6777 14.6672 72.6372 14.2646 73.8056 14.2646C74.805 14.2646 75.7789 14.6086 76.7002 15.2879L76.8278 15.382V12.3987L76.7866 12.3752C76.4398 12.1779 75.967 12.015 75.3799 11.8915C74.7953 11.7682 74.2235 11.7061 73.6803 11.7061ZM64.6124 12.0227H61.5719V25.1607H64.6124V12.0227ZM63.1233 6.42589C62.6228 6.42589 62.1864 6.59904 61.8278 6.94217C61.4677 7.28626 61.285 7.7195 61.285 8.23078C61.285 8.73403 61.4655 9.15936 61.8222 9.49431C62.1765 9.82828 62.6144 9.99755 63.1234 9.99755C63.6323 9.99755 64.0718 9.82828 64.4304 9.49486C64.7913 9.15936 64.9743 8.73417 64.9743 8.23078C64.9743 7.73738 64.7962 7.30858 64.4452 6.95603C64.0945 6.60417 63.6496 6.42589 63.1233 6.42589ZM55.5369 11.0534V25.1607H58.6399V6.82807H54.3452L48.8863 20.445L43.5887 6.82807H39.1191V25.1605H42.0352V11.052H42.1353L47.7293 25.1607H49.93L55.4367 11.0534H55.5369Z" fill="#706D6E"/>
<path d="M14.3037 15.2404H0V0.701965H14.3037V15.2404Z" fill="#F1511B"/>
<path d="M30.0966 15.2403H15.7932V0.701904H30.0966V15.2403Z" fill="#80CC28"/>
<path d="M14.3033 31.2981H0V16.7598H14.3033V31.2981Z" fill="#00ADEF"/>
<path d="M30.0966 31.2981H15.7932V16.7598H30.0966V31.2981Z" fill="#FBBC09"/>
</g>
<defs>
<clipPath id="clip0_1817_7394">
<rect width="141" height="30.6118" fill="white" transform="translate(0 0.694092)"/>
</clipPath>
</defs>
</svg>
