<svg width="55" height="32" viewBox="0 0 55 32" fill="none" xmlns="http://www.w3.org/2000/svg">
<g clip-path="url(#clip0_1817_7406)">
<path d="M15.6032 11.6218C15.6032 12.2803 15.6745 12.8142 15.7994 13.2058C15.9421 13.5973 16.1205 14.0245 16.3703 14.4872C16.4595 14.6296 16.4952 14.772 16.4952 14.8966C16.4952 15.0745 16.3881 15.2525 16.1562 15.4305L15.0323 16.178C14.8718 16.2848 14.7112 16.3382 14.5685 16.3382C14.3901 16.3382 14.2117 16.2492 14.0333 16.089C13.7835 15.822 13.5695 15.5373 13.3911 15.2525C13.2127 14.9499 13.0343 14.6118 12.838 14.2024C11.4465 15.8398 9.69824 16.6585 7.59316 16.6585C6.09462 16.6585 4.89936 16.2314 4.02522 15.3771C3.15107 14.5228 2.70508 13.3838 2.70508 11.96C2.70508 10.4472 3.24027 9.21913 4.32849 8.29366C5.41671 7.36819 6.86173 6.90545 8.69922 6.90545C9.30577 6.90545 9.93016 6.95884 10.5902 7.04783C11.2503 7.13682 11.9282 7.2792 12.6418 7.43938V6.14016C12.6418 4.78754 12.3564 3.84427 11.8033 3.29255C11.2325 2.74082 10.2691 2.47386 8.89546 2.47386C8.27107 2.47386 7.62884 2.54505 6.96877 2.70523C6.3087 2.86541 5.66647 3.06118 5.04208 3.31034C4.75664 3.43493 4.54257 3.50612 4.41769 3.54171C4.29281 3.57731 4.20361 3.59511 4.13225 3.59511C3.8825 3.59511 3.75762 3.41713 3.75762 3.04338V2.1713C3.75762 1.88654 3.7933 1.67297 3.8825 1.54839C3.9717 1.4238 4.13225 1.29922 4.38201 1.17464C5.0064 0.854283 5.75567 0.587319 6.62981 0.373749C7.50396 0.14238 8.43162 0.0355951 9.41281 0.0355951C11.5357 0.0355951 13.0878 0.516129 14.0868 1.4772C15.068 2.43826 15.5675 3.89766 15.5675 5.8554V11.6218H15.6032ZM8.36026 14.327C8.94898 14.327 9.55553 14.2202 10.1978 14.0067C10.84 13.7931 11.4109 13.4016 11.8925 12.8676C12.178 12.5295 12.392 12.1557 12.4991 11.7286C12.6061 11.3014 12.6775 10.7853 12.6775 10.1802V9.4327C12.1601 9.30812 11.6071 9.20134 11.0362 9.13015C10.4653 9.05896 9.91232 9.02336 9.35929 9.02336C8.16403 9.02336 7.28988 9.25473 6.70117 9.73526C6.11246 10.2158 5.82703 10.8921 5.82703 11.782C5.82703 12.6185 6.0411 13.2414 6.4871 13.6685C6.91525 14.1135 7.53964 14.327 8.36026 14.327ZM22.6855 16.2492C22.3644 16.2492 22.1504 16.1958 22.0076 16.0712C21.8649 15.9644 21.74 15.7152 21.633 15.3771L17.4407 1.61958C17.3336 1.26363 17.2801 1.03226 17.2801 0.907675C17.2801 0.622914 17.4228 0.462736 17.7083 0.462736H19.4566C19.7955 0.462736 20.0274 0.516129 20.1523 0.640712C20.295 0.747497 20.4021 0.996663 20.5091 1.33482L23.5062 13.1168L26.2892 1.33482C26.3784 0.978866 26.4854 0.747497 26.6281 0.640712C26.7708 0.533927 27.0206 0.462736 27.3417 0.462736H28.7689C29.1078 0.462736 29.3398 0.516129 29.4825 0.640712C29.6252 0.747497 29.7501 0.996663 29.8214 1.33482L32.6401 13.2592L35.7264 1.33482C35.8334 0.978866 35.9583 0.747497 36.0832 0.640712C36.2259 0.533927 36.4578 0.462736 36.7789 0.462736H38.438C38.7234 0.462736 38.884 0.605117 38.884 0.907675C38.884 0.996663 38.8662 1.08565 38.8483 1.19244C38.8305 1.29922 38.7948 1.4416 38.7234 1.63737L34.4241 15.3949C34.317 15.7508 34.1922 15.9822 34.0494 16.089C33.9067 16.1958 33.6748 16.267 33.3715 16.267H31.8373C31.4984 16.267 31.2664 16.2136 31.1237 16.089C30.981 15.9644 30.8561 15.733 30.7848 15.3771L28.0196 3.89766L25.2723 15.3593C25.1831 15.7152 25.0761 15.9466 24.9334 16.0712C24.7906 16.1958 24.5409 16.2492 24.2198 16.2492H22.6855ZM45.6096 16.7297C44.6819 16.7297 43.7542 16.6229 42.8623 16.4093C41.9703 16.1958 41.2745 15.9644 40.8107 15.6974C40.5253 15.5373 40.329 15.3593 40.2577 15.1991C40.1863 15.0389 40.1506 14.861 40.1506 14.7008V13.7931C40.1506 13.4194 40.2933 13.2414 40.5609 13.2414C40.668 13.2414 40.775 13.2592 40.882 13.2948C40.9891 13.3304 41.1496 13.4016 41.328 13.4727C41.9346 13.7397 42.5947 13.9533 43.2904 14.0957C44.004 14.238 44.6997 14.3092 45.4133 14.3092C46.5372 14.3092 47.4114 14.1135 48.0179 13.7219C48.6245 13.3304 48.9456 12.7608 48.9456 12.0311C48.9456 11.5328 48.785 11.1235 48.4639 10.7853C48.1428 10.4472 47.5363 10.1446 46.6621 9.85985L44.0754 9.05896C42.7731 8.64961 41.8097 8.04449 41.221 7.2436C40.6323 6.46051 40.329 5.58843 40.329 4.66296C40.329 3.91546 40.4896 3.25695 40.8107 2.68743C41.1318 2.11791 41.56 1.61958 42.0951 1.22803C42.6303 0.818687 43.2369 0.516129 43.9505 0.302558C44.6641 0.0889877 45.4133 0 46.1983 0C46.5908 0 47.0011 0.0177975 47.3935 0.0711902C47.8039 0.124583 48.1785 0.195773 48.5531 0.266963C48.9099 0.355951 49.2489 0.444939 49.57 0.551724C49.8911 0.658509 50.1409 0.765295 50.3193 0.87208C50.569 1.01446 50.7474 1.15684 50.8544 1.31702C50.9615 1.4594 51.015 1.65517 51.015 1.90434V2.74082C51.015 3.11457 50.8723 3.31034 50.6047 3.31034C50.462 3.31034 50.2301 3.23915 49.9268 3.09677C48.9099 2.63404 47.7682 2.40267 46.5016 2.40267C45.4847 2.40267 44.6819 2.56285 44.1289 2.901C43.5758 3.23915 43.2904 3.75528 43.2904 4.48498C43.2904 4.98331 43.4688 5.41046 43.8256 5.74861C44.1824 6.08676 44.8425 6.42492 45.788 6.72748L48.3212 7.52837C49.6057 7.93771 50.5333 8.50723 51.0864 9.23693C51.6394 9.96663 51.907 10.8031 51.907 11.7286C51.907 12.4939 51.7464 13.188 51.4432 13.7931C51.122 14.3982 50.6939 14.9321 50.1409 15.3593C49.5878 15.8042 48.9278 16.1246 48.1606 16.356C47.3579 16.6051 46.5194 16.7297 45.6096 16.7297Z" fill="#252F3E"/>
<path fill-rule="evenodd" clip-rule="evenodd" d="M48.9823 25.3793C43.1131 29.7041 34.5857 32 27.2536 32C16.9779 32 7.71907 28.2092 0.725909 21.9088C0.172878 21.4105 0.67239 20.7342 1.33246 21.1257C8.89649 25.5039 18.2267 28.1558 27.8779 28.1558C34.3894 28.1558 41.5432 26.8031 48.126 24.0267C49.1072 23.5818 49.9457 24.6674 48.9823 25.3793Z" fill="#FF9900"/>
<path fill-rule="evenodd" clip-rule="evenodd" d="M51.4263 22.6029C50.6771 21.6419 46.4669 22.1402 44.558 22.3716C43.9872 22.4427 43.898 21.9444 44.4153 21.5707C47.7692 19.2214 53.2817 19.8977 53.9239 20.6808C54.5661 21.4817 53.7455 26.9811 50.6057 29.6152C50.124 30.0245 49.6602 29.8109 49.8743 29.277C50.5879 27.515 52.1756 23.5462 51.4263 22.6029Z" fill="#FF9900"/>
</g>
<defs>
<clipPath id="clip0_1817_7406">
<rect width="54.7368" height="32" fill="white"/>
</clipPath>
</defs>
</svg>
